<mxfile host="app.diagrams.net" agent="Mozilla/5.0 (Macintosh; Intel Mac OS X 10_15_7) AppleWebKit/605.1.15 (KHTML, like Gecko) Version/18.1.1 Safari/605.1.15" version="26.1.1">
  <diagram name="Page-1" id="e3a06f82-3646-2815-327d-82caf3d4e204">
    <mxGraphModel dx="1341" dy="757" grid="1" gridSize="10" guides="1" tooltips="1" connect="1" arrows="1" fold="1" page="1" pageScale="1.5" pageWidth="1169" pageHeight="826" background="none" math="0" shadow="0">
      <root>
        <mxCell id="0" style=";html=1;" />
        <mxCell id="1" style=";html=1;" parent="0" />
        <mxCell id="6a7d8f32e03d9370-61" value="Källarplan" style="whiteSpace=wrap;html=1;fillColor=#f8cecc;fontSize=14;strokeColor=none;verticalAlign=top;" parent="1" vertex="1">
          <mxGeometry x="270" y="490" width="1215.5" height="200" as="geometry" />
        </mxCell>
        <mxCell id="6a7d8f32e03d9370-59" value="Våning 2" style="whiteSpace=wrap;html=1;fillColor=#EDEDED;fontSize=14;strokeColor=none;verticalAlign=top;" parent="1" vertex="1">
          <mxGeometry x="270" y="140" width="1215.5" height="172" as="geometry" />
        </mxCell>
        <mxCell id="6a7d8f32e03d9370-57" value="Våning 1 / Entreplan" style="whiteSpace=wrap;html=1;fillColor=#FFD470;gradientColor=none;fontSize=14;strokeColor=none;verticalAlign=top;" parent="1" vertex="1">
          <mxGeometry x="270" y="312" width="1215.5" height="186" as="geometry" />
        </mxCell>
        <mxCell id="6a7d8f32e03d9370-54" style="edgeStyle=none;rounded=0;html=1;startSize=10;endSize=10;jettySize=auto;orthogonalLoop=1;fontSize=14;endArrow=none;endFill=0;strokeWidth=2;" parent="1" source="6a7d8f32e03d9370-26" edge="1">
          <mxGeometry relative="1" as="geometry">
            <mxPoint x="1358.9999999999995" y="433.8998559077811" as="targetPoint" />
          </mxGeometry>
        </mxCell>
        <mxCell id="6a7d8f32e03d9370-55" style="edgeStyle=none;rounded=0;html=1;startSize=10;endSize=10;jettySize=auto;orthogonalLoop=1;fontSize=14;endArrow=none;endFill=0;strokeWidth=2;" parent="1" target="6a7d8f32e03d9370-27" edge="1">
          <mxGeometry relative="1" as="geometry">
            <mxPoint x="1267.0000000000005" y="529.6187872763419" as="sourcePoint" />
          </mxGeometry>
        </mxCell>
        <mxCell id="r29pq62LCHR32nsrzc3e-2" value="" style="edgeStyle=orthogonalEdgeStyle;rounded=0;orthogonalLoop=1;jettySize=auto;html=1;" edge="1" parent="1" source="6a7d8f32e03d9370-26">
          <mxGeometry relative="1" as="geometry">
            <mxPoint x="1221" y="428" as="targetPoint" />
          </mxGeometry>
        </mxCell>
        <mxCell id="6a7d8f32e03d9370-62" value="Skyttegatan&amp;nbsp;" style="text;strokeColor=none;fillColor=none;html=1;fontSize=24;fontStyle=1;verticalAlign=middle;align=center;" parent="1" vertex="1">
          <mxGeometry x="445" y="40" width="861" height="40" as="geometry" />
        </mxCell>
        <mxCell id="r29pq62LCHR32nsrzc3e-5" value="" style="verticalLabelPosition=bottom;shadow=0;dashed=0;align=center;html=1;verticalAlign=top;shape=mxgraph.electrical.transmission.optical_fiber2;" vertex="1" parent="1">
          <mxGeometry x="270" y="498" width="65" height="40" as="geometry" />
        </mxCell>
        <mxCell id="r29pq62LCHR32nsrzc3e-6" value="" style="ellipse;shape=cloud;whiteSpace=wrap;html=1;" vertex="1" parent="1">
          <mxGeometry x="40" y="498" width="180" height="150" as="geometry" />
        </mxCell>
        <mxCell id="r29pq62LCHR32nsrzc3e-7" style="edgeStyle=orthogonalEdgeStyle;rounded=0;orthogonalLoop=1;jettySize=auto;html=1;entryX=0;entryY=0.5;entryDx=0;entryDy=0;entryPerimeter=0;" edge="1" parent="1" source="r29pq62LCHR32nsrzc3e-6" target="r29pq62LCHR32nsrzc3e-5">
          <mxGeometry relative="1" as="geometry" />
        </mxCell>
        <mxCell id="r29pq62LCHR32nsrzc3e-11" value="AP&amp;nbsp;" style="shape=mxgraph.cisco.misc.mesh_ap;html=1;pointerEvents=1;dashed=0;fillColor=#036897;strokeColor=#ffffff;strokeWidth=2;verticalLabelPosition=bottom;verticalAlign=top;align=center;outlineConnect=0;" vertex="1" parent="1">
          <mxGeometry x="640" y="420" width="60" height="40" as="geometry" />
        </mxCell>
        <mxCell id="r29pq62LCHR32nsrzc3e-12" style="edgeStyle=orthogonalEdgeStyle;rounded=0;orthogonalLoop=1;jettySize=auto;html=1;exitX=1;exitY=0.5;exitDx=0;exitDy=0;exitPerimeter=0;entryX=0.5;entryY=1;entryDx=0;entryDy=0;entryPerimeter=0;" edge="1" parent="1" source="r29pq62LCHR32nsrzc3e-5" target="r29pq62LCHR32nsrzc3e-11">
          <mxGeometry relative="1" as="geometry" />
        </mxCell>
      </root>
    </mxGraphModel>
  </diagram>
</mxfile>
